<svg xmlns="http://www.w3.org/2000/svg" width="192" height="192" viewBox="0 0 192 192">
  <defs>
    <linearGradient id="g" x1="0" y1="0" x2="1" y2="1">
      <stop offset="0" stop-color="#fb7185" />
      <stop offset="0.55" stop-color="#a855f7" />
      <stop offset="1" stop-color="#38bdf8" />
    </linearGradient>
  </defs>
  <rect x="14" y="14" width="164" height="164" rx="44" fill="#050505" />
  <circle cx="96" cy="96" r="52" fill="url(#g)" opacity="0.95" />
  <path
    d="M96 132c18-13 34-25 34-44 0-11-8-19-18-19-7 0-12 4-16 10-4-6-9-10-16-10-10 0-18 8-18 19 0 19 16 31 34 44z"
    fill="#0b0b0b"
    opacity="0.9"
  />
  <path
    d="M78 84c6-8 14-12 18-12s12 4 18 12"
    fill="none"
    stroke="#0b0b0b"
    stroke-width="6"
    stroke-linecap="round"
    opacity="0.9"
  />
</svg>

