<svg xmlns="http://www.w3.org/2000/svg" viewBox="0 0 512 512" role="img" aria-label="Plyndrox AI logo">
  <defs>
    <linearGradient id="bg" x1="72" y1="40" x2="440" y2="472" gradientUnits="userSpaceOnUse"><stop stop-color="#09090B"/><stop offset="0.48" stop-color="#17132F"/><stop offset="1" stop-color="#312E81"/></linearGradient>
    <linearGradient id="mark" x1="132" y1="116" x2="372" y2="396" gradientUnits="userSpaceOnUse"><stop stop-color="#F8FAFC"/><stop offset="0.44" stop-color="#C7D2FE"/><stop offset="1" stop-color="#8B5CF6"/></linearGradient>
    <linearGradient id="spark" x1="314" y1="96" x2="408" y2="190" gradientUnits="userSpaceOnUse"><stop stop-color="#67E8F9"/><stop offset="1" stop-color="#A78BFA"/></linearGradient>
  </defs>
  <rect width="512" height="512" rx="116" fill="url(#bg)"/>
  <path d="M96 366C152 270 228 154 348 126" stroke="#FFFFFF" stroke-opacity="0.14" stroke-width="22" stroke-linecap="round"/>
  <path d="M112 146C170 119 242 105 318 111" stroke="#FFFFFF" stroke-opacity="0.08" stroke-width="14" stroke-linecap="round"/>
  <path fill="url(#mark)" d="M156 384V139h115c68 0 113 39 113 99 0 61-45 100-113 100h-57v46h-58Zm58-98h53c36 0 58-18 58-48 0-29-22-47-58-47h-53v95Z"/>
  <path fill="#FFFFFF" fill-opacity="0.88" d="M214 286h53c36 0 58-18 58-48 0-29-22-47-58-47h-53v95Z"/>
  <path fill="#09090B" fill-opacity="0.82" d="M249 238c0-15 12-27 27-27s27 12 27 27-12 28-27 28-27-13-27-28Z"/>
  <path fill="url(#spark)" d="M372 86l13 38 39 13-39 13-13 39-13-39-39-13 39-13 13-38Z"/>
  <circle cx="370" cy="137" r="8" fill="#FFFFFF" fill-opacity="0.92"/>
</svg>
