<svg xmlns="http://www.w3.org/2000/svg" width="512" height="512" viewBox="0 0 512 512">
  <defs>
    <linearGradient id="g" x1="0" y1="0" x2="1" y2="1">
      <stop offset="0" stop-color="#fb7185" />
      <stop offset="0.55" stop-color="#a855f7" />
      <stop offset="1" stop-color="#38bdf8" />
    </linearGradient>
  </defs>
  <rect x="56" y="56" width="400" height="400" rx="92" fill="#050505" />
  <circle cx="256" cy="256" r="156" fill="url(#g)" opacity="0.95" />
  <path
    d="M256 370c70-50 128-94 128-161 0-41-31-73-72-73-27 0-46 14-56 33-10-19-30-33-57-33-40 0-72 32-72 73 0 67 58 111 129 161z"
    fill="#0b0b0b"
    opacity="0.9"
  />
  <path
    d="M192 225c22-28 45-41 64-41s42 13 64 41"
    fill="none"
    stroke="#0b0b0b"
    stroke-width="20"
    stroke-linecap="round"
    opacity="0.9"
  />
</svg>

