<svg xmlns="http://www.w3.org/2000/svg" viewBox="0 0 512 512" role="img" aria-label="Plyndrox AI logo"><defs><linearGradient id="bg" x1="72" y1="40" x2="440" y2="472" gradientUnits="userSpaceOnUse"><stop stop-color="#09090B"/><stop offset="0.48" stop-color="#17132F"/><stop offset="1" stop-color="#312E81"/></linearGradient><linearGradient id="mark" x1="132" y1="116" x2="372" y2="396" gradientUnits="userSpaceOnUse"><stop stop-color="#F8FAFC"/><stop offset="0.44" stop-color="#C7D2FE"/><stop offset="1" stop-color="#8B5CF6"/></linearGradient></defs><rect width="512" height="512" rx="116" fill="url(#bg)"/><path fill="url(#mark)" d="M156 384V139h115c68 0 113 39 113 99 0 61-45 100-113 100h-57v46h-58Zm58-98h53c36 0 58-18 58-48 0-29-22-47-58-47h-53v95Z"/><path fill="#fff" fill-opacity=".88" d="M214 286h53c36 0 58-18 58-48 0-29-22-47-58-47h-53v95Z"/></svg>